<svg width="202" height="202" viewBox="0 0 202 202" fill="none" xmlns="http://www.w3.org/2000/svg">
<circle cx="101" cy="101" r="101" fill="black"/>
<path fill-rule="evenodd" clip-rule="evenodd" d="M23.6354 132V94.0713L18.7016 93.4986C18.0555 93.3518 17.5416 93.1315 17.1598 92.8378C16.778 92.5148 16.5871 92.0596 16.5871 91.4722V88.2564H23.6354V85.8776C23.6354 83.4107 24.0025 81.0759 24.7367 78.8733C25.5003 76.6414 26.6456 74.7031 28.1728 73.0585C29.6999 71.4139 31.6088 70.107 33.8995 69.1379C36.1902 68.1687 38.8627 67.6842 41.917 67.6842C44.1783 67.6842 46.3515 67.7723 48.4367 67.9485C50.5512 68.1247 52.5922 68.2275 54.5599 68.2568H59.8902V96H69.9971C70.3247 92.9728 70.9954 90.1273 72.0093 87.4635C73.507 83.4988 75.6215 80.0921 78.3527 77.2434C81.084 74.3654 84.3585 72.1334 88.1763 70.5475C91.9942 68.9617 96.2232 68.1687 100.863 68.1687C105.503 68.1687 109.732 68.9617 113.55 70.5475C117.397 72.1334 120.687 74.3654 123.418 77.2434C126.149 80.0921 128.264 83.4988 129.761 87.4635C130.775 90.1273 131.446 92.9728 131.774 96H141.965V87.3754H149.806V132H141.965V104H131.862C131.578 107.378 130.877 110.544 129.761 113.498C128.264 117.433 126.149 120.825 123.418 123.674C120.687 126.523 117.397 128.74 113.55 130.326C109.732 131.883 105.503 132.661 100.863 132.661C96.2232 132.661 91.9942 131.883 88.1763 130.326C84.3585 128.74 81.084 126.523 78.3527 123.674C75.6215 120.825 73.507 117.433 72.0093 113.498C70.8933 110.544 70.1931 107.378 69.9086 104H59.8902V132H52.093V73.7633C50.5071 73.7046 48.9065 73.6312 47.2913 73.5431C45.7054 73.455 44.3105 73.4109 43.1064 73.4109C39.2885 73.4109 36.3517 74.5122 34.296 76.7148C32.2696 78.888 31.2564 81.9423 31.2564 85.8776V88.2564H42.8421V93.9391H31.4767V132H23.6354ZM123.242 100.459C123.242 96.5822 122.713 93.1021 121.656 90.0185C120.599 86.9349 119.101 84.3358 117.163 82.2213C115.224 80.0774 112.875 78.4328 110.114 77.2875C107.354 76.1421 104.27 75.5695 100.863 75.5695C97.486 75.5695 94.417 76.1421 91.6564 77.2875C88.8959 78.4328 86.5317 80.0774 84.5641 82.2213C82.6258 84.3358 81.128 86.9349 80.0708 90.0185C79.0135 93.1021 78.4849 96.5822 78.4849 100.459C78.4849 104.335 79.0135 107.815 80.0708 110.899C81.128 113.953 82.6258 116.552 84.5641 118.696C86.5317 120.811 88.8959 122.441 91.6564 123.586C94.417 124.702 97.486 125.26 100.863 125.26C104.27 125.26 107.354 124.702 110.114 123.586C112.875 122.441 115.224 120.811 117.163 118.696C119.101 116.552 120.599 113.953 121.656 110.899C122.713 107.815 123.242 104.335 123.242 100.459Z" fill="white"/>
<path d="M150.996 75.5254C151.319 74.8499 151.48 74.1304 151.48 73.3668C151.48 72.6033 151.319 71.8838 150.996 71.2083C150.702 70.5035 150.291 69.9014 149.762 69.4022C149.263 68.8736 148.661 68.4624 147.956 68.1687C147.281 67.875 146.561 67.7282 145.798 67.7282C145.034 67.7282 144.315 67.875 143.639 68.1687C142.993 68.4624 142.42 68.8736 141.921 69.4022C141.422 69.9014 141.025 70.5035 140.732 71.2083C140.438 71.8838 140.291 72.6033 140.291 73.3668C140.291 74.1304 140.438 74.8499 140.732 75.5254C141.025 76.1715 141.422 76.7588 141.921 77.2875C142.42 77.7867 142.993 78.1832 143.639 78.4769C144.315 78.7706 145.034 78.9174 145.798 78.9174C146.561 78.9174 147.281 78.7706 147.956 78.4769C148.661 78.1832 149.263 77.7867 149.762 77.2875C150.291 76.7588 150.702 76.1715 150.996 75.5254Z" fill="white"/>
<path d="M176.39 132.705C172.866 132.705 170.15 131.721 168.241 129.753C166.361 127.786 165.421 124.952 165.421 121.251V93.9391H160.047C159.577 93.9391 159.181 93.807 158.858 93.5426C158.535 93.249 158.373 92.8084 158.373 92.2211V89.0934L165.686 88.1683L167.492 74.38C167.58 73.9395 167.771 73.5871 168.065 73.3228C168.388 73.0291 168.799 72.8823 169.298 72.8823H173.263V88.2564H186.17V93.9391H173.263V120.723C173.263 122.602 173.718 123.997 174.628 124.908C175.539 125.818 176.713 126.273 178.152 126.273C178.975 126.273 179.68 126.17 180.267 125.965C180.884 125.73 181.412 125.48 181.853 125.216C182.293 124.952 182.66 124.717 182.954 124.511C183.277 124.276 183.556 124.159 183.791 124.159C184.202 124.159 184.569 124.408 184.892 124.908L187.183 128.652C185.832 129.915 184.202 130.913 182.293 131.648C180.384 132.352 178.417 132.705 176.39 132.705Z" fill="white"/>
</svg>
