<svg width="70" height="70" viewBox="0 0 70 70" fill="none" xmlns="http://www.w3.org/2000/svg">
<circle cx="35" cy="35" r="35" fill="white"/>
<path fill-rule="evenodd" clip-rule="evenodd" d="M8.19049 45.7426V32.5989L6.48075 32.4005C6.25686 32.3496 6.07876 32.2733 5.94646 32.1715C5.81416 32.0596 5.748 31.9018 5.748 31.6983V30.5839H8.19049V29.7596C8.19049 28.9047 8.3177 28.0956 8.57213 27.3323C8.83673 26.5589 9.23363 25.8872 9.76284 25.3173C10.292 24.7474 10.9536 24.2945 11.7474 23.9587C12.5412 23.6228 13.4673 23.4549 14.5257 23.4549C15.3093 23.4549 16.0624 23.4854 16.785 23.5465C17.5177 23.6075 18.225 23.6432 18.9069 23.6533H20.754V33.2673H24.2564C24.37 32.2183 24.6024 31.2322 24.9537 30.3091C25.4727 28.9352 26.2055 27.7547 27.1519 26.7675C28.0984 25.7702 29.2331 24.9967 30.5562 24.4472C31.8792 23.8976 33.3447 23.6228 34.9526 23.6228C36.5606 23.6228 38.0261 23.8976 39.3491 24.4472C40.6823 24.9967 41.8221 25.7702 42.7686 26.7675C43.715 27.7547 44.4478 28.9352 44.9668 30.3091C45.3181 31.2322 45.5506 32.2183 45.6641 33.2673H49.1958V30.2786H51.9131V45.7426H49.1958V36.0396H45.6948C45.5962 37.2102 45.3535 38.3073 44.9668 39.331C44.4478 40.6948 43.715 41.8702 42.7686 42.8574C41.8221 43.8446 40.6823 44.6129 39.3491 45.1625C38.0261 45.7019 36.5606 45.9715 34.9526 45.9715C33.3447 45.9715 31.8792 45.7019 30.5562 45.1625C29.2331 44.6129 28.0984 43.8446 27.1519 42.8574C26.2055 41.8702 25.4727 40.6948 24.9537 39.331C24.567 38.3073 24.3243 37.2102 24.2258 36.0396H20.754V45.7426H18.052V25.5615C17.5025 25.5412 16.9478 25.5157 16.3881 25.4852C15.8385 25.4547 15.3551 25.4394 14.9379 25.4394C13.6148 25.4394 12.5971 25.8211 11.8847 26.5843C11.1825 27.3374 10.8314 28.3958 10.8314 29.7596V30.5839H14.8463V32.5531H10.9078V45.7426H8.19049ZM42.7075 34.8124C42.7075 33.4691 42.5243 32.2631 42.158 31.1945C41.7916 30.1259 41.2726 29.2253 40.6009 28.4925C39.9292 27.7496 39.115 27.1797 38.1584 26.7828C37.2018 26.3859 36.1332 26.1874 34.9526 26.1874C33.7823 26.1874 32.7188 26.3859 31.7621 26.7828C30.8055 27.1797 29.9862 27.7496 29.3044 28.4925C28.6327 29.2253 28.1137 30.1259 27.7473 31.1945C27.3809 32.2631 27.1977 33.4691 27.1977 34.8124C27.1977 36.1558 27.3809 37.3618 27.7473 38.4304C28.1137 39.4888 28.6327 40.3895 29.3044 41.1324C29.9862 41.8651 30.8055 42.4299 31.7621 42.8268C32.7188 43.2136 33.7823 43.4069 34.9526 43.4069C36.1332 43.4069 37.2018 43.2136 38.1584 42.8268C39.115 42.4299 39.9292 41.8651 40.6009 41.1324C41.2726 40.3895 41.7916 39.4888 42.158 38.4304C42.5243 37.3618 42.7075 36.1558 42.7075 34.8124Z" fill="black"/>
<path d="M52.3253 26.1722C52.4372 25.9381 52.4932 25.6887 52.4932 25.4241C52.4932 25.1595 52.4372 24.9102 52.3253 24.6761C52.2235 24.4319 52.081 24.2233 51.8978 24.0502C51.7248 23.8671 51.5162 23.7246 51.272 23.6228C51.0379 23.521 50.7885 23.4702 50.5239 23.4702C50.2593 23.4702 50.01 23.521 49.7759 23.6228C49.552 23.7246 49.3536 23.8671 49.1806 24.0502C49.0076 24.2233 48.8702 24.4319 48.7684 24.6761C48.6666 24.9102 48.6158 25.1595 48.6158 25.4241C48.6158 25.6887 48.6666 25.9381 48.7684 26.1722C48.8702 26.3961 49.0076 26.5996 49.1806 26.7828C49.3536 26.9558 49.552 27.0932 49.7759 27.1949C50.01 27.2967 50.2593 27.3476 50.5239 27.3476C50.7885 27.3476 51.0379 27.2967 51.272 27.1949C51.5162 27.0932 51.7248 26.9558 51.8978 26.7828C52.081 26.5996 52.2235 26.3961 52.3253 26.1722Z" fill="black"/>
<path d="M61.1254 45.9868C59.9041 45.9868 58.9628 45.6459 58.3013 44.964C57.6499 44.2822 57.3243 43.3001 57.3243 42.0178V32.5531H55.4619C55.299 32.5531 55.1616 32.5074 55.0497 32.4158C54.9377 32.314 54.8818 32.1613 54.8818 31.9578V30.8739L57.4159 30.5534L58.0417 25.7753C58.0723 25.6226 58.1384 25.5005 58.2402 25.4089C58.3521 25.3071 58.4946 25.2562 58.6676 25.2562H60.0415V30.5839H64.5143V32.5531H60.0415V41.8346C60.0415 42.4859 60.1993 42.9693 60.5148 43.2848C60.8302 43.6003 61.2373 43.758 61.736 43.758C62.021 43.758 62.2652 43.7224 62.4687 43.6512C62.6825 43.5698 62.8656 43.4833 63.0183 43.3917C63.171 43.3001 63.2982 43.2187 63.3999 43.1474C63.5119 43.066 63.6086 43.0253 63.69 43.0253C63.8325 43.0253 63.9597 43.1118 64.0716 43.2848L64.8654 44.5824C64.3973 45.02 63.8325 45.366 63.171 45.6204C62.5094 45.8647 61.8276 45.9868 61.1254 45.9868Z" fill="black"/>
</svg>
