<svg width="170" height="170" viewBox="0 0 170 170" fill="none" xmlns="http://www.w3.org/2000/svg">
<circle cx="85" cy="85" r="85" fill="black"/>
<path fill-rule="evenodd" clip-rule="evenodd" d="M19.8912 111.089V79.1689L15.739 78.6869C15.1952 78.5634 14.7627 78.378 14.4414 78.1308C14.1201 77.859 13.9594 77.4759 13.9594 76.9816V74.2752H19.8912V72.2732C19.8912 70.1971 20.2001 68.2322 20.818 66.3786C21.4606 64.5002 22.4245 62.8689 23.7098 61.4849C24.995 60.1008 26.6015 59.001 28.5293 58.1853C30.4571 57.3697 32.7062 56.9619 35.2767 56.9619C37.1798 56.9619 39.0087 57.0361 40.7635 57.1844C42.5431 57.3326 44.2608 57.4192 45.9167 57.4439H50.4026V80.7921H58.9085C59.1842 78.2445 59.7486 75.8497 60.6019 73.6079C61.8624 70.2713 63.6419 67.4043 65.9404 65.0068C68.239 62.5847 70.9948 60.7063 74.2078 59.3717C77.4208 58.037 80.9799 57.3697 84.885 57.3697C88.79 57.3697 92.3491 58.037 95.5621 59.3717C98.7999 60.7063 101.568 62.5847 103.867 65.0068C106.165 67.4043 107.945 70.2713 109.205 73.6079C110.058 75.8497 110.623 78.2445 110.899 80.7921H119.476V73.5337H126.075V111.089H119.476V87.5248H110.973C110.734 90.3676 110.144 93.0321 109.205 95.5183C107.945 98.8302 106.165 101.685 103.867 104.082C101.568 106.48 98.7999 108.346 95.5621 109.68C92.3491 110.99 88.79 111.645 84.885 111.645C80.9799 111.645 77.4208 110.99 74.2078 109.68C70.9948 108.346 68.239 106.48 65.9404 104.082C63.6419 101.685 61.8624 98.8302 60.6019 95.5183C59.6627 93.0321 59.0734 90.3676 58.834 87.5248H50.4026V111.089H43.8406V62.078C42.506 62.0286 41.159 61.9668 39.7996 61.8927C38.465 61.8185 37.291 61.7815 36.2776 61.7815C33.0646 61.7815 30.5931 62.7083 28.863 64.562C27.1576 66.3909 26.3049 68.9613 26.3049 72.2732V74.2752H36.0552V79.0577H26.4903V111.089H19.8912ZM103.718 84.5445C103.718 81.2821 103.273 78.3533 102.384 75.7581C101.494 73.163 100.233 70.9757 98.6021 69.1961C96.9709 67.3919 94.9936 66.0078 92.6704 65.0439C90.3471 64.08 87.752 63.5981 84.885 63.5981C82.0427 63.5981 79.4599 64.08 77.1366 65.0439C74.8133 66.0078 72.8237 67.3919 71.1678 69.1961C69.5366 70.9757 68.2761 73.163 67.3863 75.7581C66.4965 78.3533 66.0517 81.2821 66.0517 84.5445C66.0517 87.807 66.4965 90.7358 67.3863 93.3309C68.2761 95.9014 69.5366 98.0887 71.1678 99.8929C72.8237 101.672 74.8133 103.044 77.1366 104.008C79.4599 104.947 82.0427 105.417 84.885 105.417C87.752 105.417 90.3471 104.947 92.6704 104.008C94.9936 103.044 96.9709 101.672 98.6021 99.8929C100.233 98.0887 101.494 95.9014 102.384 93.3309C103.273 90.7358 103.718 87.807 103.718 84.5445Z" fill="white"/>
<path d="M127.076 63.561C127.348 62.9925 127.483 62.387 127.483 61.7444C127.483 61.1018 127.348 60.4962 127.076 59.9278C126.829 59.3346 126.482 58.8279 126.038 58.4078C125.617 57.9629 125.111 57.6169 124.518 57.3697C123.949 57.1226 123.344 56.999 122.701 56.999C122.058 56.999 121.453 57.1226 120.884 57.3697C120.341 57.6169 119.859 57.9629 119.439 58.4078C119.018 58.8279 118.685 59.3346 118.438 59.9278C118.19 60.4962 118.067 61.1018 118.067 61.7444C118.067 62.387 118.19 62.9925 118.438 63.561C118.685 64.1047 119.018 64.599 119.439 65.0439C119.859 65.4641 120.341 65.7977 120.884 66.0449C121.453 66.2921 122.058 66.4156 122.701 66.4156C123.344 66.4156 123.949 66.2921 124.518 66.0449C125.111 65.7977 125.617 65.4641 126.038 65.0439C126.482 64.599 126.829 64.1047 127.076 63.561Z" fill="white"/>
<path d="M148.447 111.682C145.481 111.682 143.195 110.854 141.589 109.198C140.007 107.542 139.216 105.157 139.216 102.043V79.0577H134.693C134.298 79.0577 133.964 78.9465 133.692 78.724C133.42 78.4769 133.284 78.1061 133.284 77.6118V74.9796L139.438 74.2011L140.959 62.5971C141.033 62.2263 141.193 61.9298 141.44 61.7073C141.712 61.4602 142.058 61.3366 142.479 61.3366H145.815V74.2752H156.678V79.0577H145.815V101.598C145.815 103.18 146.198 104.354 146.964 105.12C147.731 105.886 148.719 106.27 149.93 106.27C150.622 106.27 151.215 106.183 151.71 106.01C152.229 105.812 152.674 105.602 153.044 105.38C153.415 105.157 153.724 104.96 153.971 104.787C154.243 104.589 154.478 104.49 154.676 104.49C155.022 104.49 155.331 104.7 155.603 105.12L157.53 108.272C156.393 109.334 155.022 110.175 153.415 110.793C151.809 111.386 150.153 111.682 148.447 111.682Z" fill="white"/>
</svg>
