<?xml version="1.0" encoding="UTF-8" standalone="no"?> <!-- Created with Vectornator for iOS (http://vectornator.io/) --><!DOCTYPE svg PUBLIC "-//W3C//DTD SVG 1.1//EN" "http://www.w3.org/Graphics/SVG/1.1/DTD/svg11.dtd">
<svg height="100%" style="fill-rule:evenodd;clip-rule:evenodd;stroke-linecap:round;stroke-linejoin:round;" xmlns:xlink="http://www.w3.org/1999/xlink" xmlns="http://www.w3.org/2000/svg" xml:space="preserve" width="100%" xmlns:vectornator="http://vectornator.io" version="1.1" viewBox="0 0 155.925 155.925">
<metadata>
<vectornator:setting key="DynamicGuides" value="0"/>
<vectornator:setting key="SnapToPoints" value="0"/>
<vectornator:setting key="OutlineMode" value="0"/>
<vectornator:setting key="RulersVisible" value="1"/>
<vectornator:setting key="CMYKEnabledKey" value="0"/>
<vectornator:setting key="SnapToEdges" value="0"/>
<vectornator:setting key="DisplayWhiteBackground" value="0"/>
<vectornator:setting key="ShowGrid" value="0"/>
<vectornator:setting key="SnapToGuides" value="0"/>
<vectornator:setting key="GridSpacing" value="28.35000038146973"/>
<vectornator:setting key="IsolateActiveLayer" value="0"/>
<vectornator:setting key="Units" value="Millimeters"/>
<vectornator:setting key="SnapToGrid" value="1"/>
</metadata>
<defs/>
<g id="Layer 1" vectornator:layerName="Layer 1">
<path d="M77.9688+0C34.9112+0+0+34.9112+0+77.9688C0+121.026+34.9112+155.938+77.9688+155.938C121.026+155.937+155.938+121.026+155.938+77.9688C155.937+34.9112+121.026+0+77.9688+0ZM77.9688+7.15625C117.073+7.15625+148.781+38.8641+148.781+77.9688C148.781+117.073+117.073+148.781+77.9688+148.781C38.8641+148.781+7.15626+117.073+7.15625+77.9688C7.15625+38.8641+38.8641+7.15626+77.9688+7.15625Z" opacity="1" fill="#ffffff"/>
<g opacity="1">
<g opacity="1">
<path d="M41.0814+99.9679L36.336+99.9679L36.336+47.2108L41.0814+47.2108L41.0814+99.9679ZM29.6367+71.2864L21.9604+71.2864L21.9604+99.9679L17.215+99.9679L17.215+71.2864L10.3762+71.2864L10.3762+67.3087L17.215+67.3087L17.215+58.3763C17.215+54.6545+18.1222+51.7235+19.9366+49.5835C21.751+47.4434+24.5424+46.3734+28.3108+46.3734C28.9156+46.3734+29.5669+46.4083+30.2648+46.478C30.9626+46.5478+31.6139+46.6758+32.2187+46.8619L31.3813+51.0489C30.8696+50.9094+30.3578+50.793+29.846+50.7C29.3343+50.607+28.7528+50.5604+28.1014+50.5604C26.8453+50.5604+25.8102+50.7698+24.996+51.1885C24.1819+51.6072+23.5538+52.2004+23.1118+52.968C22.6699+53.7356+22.3675+54.6312+22.2046+55.6547C22.0418+56.6782+21.9604+57.7715+21.9604+58.9346L21.9604+67.3087L29.6367+67.3087L29.6367+71.2864Z" opacity="1" fill="#ffffff"/>
<path d="M102.91+75.2642C102.91+79.0325+102.259+82.4985+100.957+85.6621C99.6539+88.8256+97.8511+91.5589+95.5482+93.8618C93.2453+96.1646+90.5237+97.9674+87.3834+99.2701C84.2431+100.573+80.8353+101.224+77.16+101.224C73.4847+101.224+70.0768+100.573+66.9365+99.2701C63.7962+97.9674+61.0746+96.1646+58.7717+93.8618C56.4689+91.5589+54.6661+88.8256+53.3634+85.6621C52.0608+82.4985+51.4095+79.0325+51.4095+75.2642C51.4095+71.4958+52.0608+68.0298+53.3634+64.8663C54.6661+61.7027+56.4689+58.9695+58.7717+56.6666C61.0746+54.3637+63.7962+52.5609+66.9365+51.2583C70.0768+49.9556+73.4847+49.3043+77.16+49.3043C80.8353+49.3043+84.2431+49.9556+87.3834+51.2583C90.5237+52.5609+93.2453+54.3637+95.5482+56.6666C97.8511+58.9695+99.6539+61.7027+100.957+64.8663C102.259+68.0298+102.91+71.4958+102.91+75.2642ZM97.6069+75.2642C97.6069+72.3797+97.1416+69.6349+96.2112+67.0296C95.2807+64.4243+93.9315+62.133+92.1637+60.1558C90.3958+58.1786+88.2441+56.6084+85.7086+55.4454C83.1731+54.2823+80.3235+53.7007+77.16+53.7007C73.9964+53.7007+71.1469+54.2823+68.6114+55.4454C66.0759+56.6084+63.9242+58.1786+62.1563+60.1558C60.3884+62.133+59.0393+64.4243+58.1088+67.0296C57.1783+69.6349+56.7131+72.3797+56.7131+75.2642C56.7131+78.1486+57.1783+80.8935+58.1088+83.4987C59.0393+86.104+60.3884+88.3837+62.1563+90.3376C63.9242+92.2916+66.0759+93.8501+68.6114+95.0132C71.1469+96.1763+73.9964+96.7578+77.16+96.7578C80.3235+96.7578+83.1731+96.1763+85.7086+95.0132C88.2441+93.8501+90.3958+92.2916+92.1637+90.3376C93.9315+88.3837+95.2807+86.104+96.2112+83.4987C97.1416+80.8935+97.6069+78.1486+97.6069+75.2642Z" opacity="1" fill="#ffffff"/>
<path d="M117.914+99.9679L113.169+99.9679L113.169+67.3087L117.914+67.3087L117.914+99.9679ZM118.891+54.7475C118.891+55.7245+118.542+56.527+117.844+57.1551C117.147+57.7831+116.379+58.0972+115.541+58.0972C114.704+58.0972+113.936+57.7831+113.239+57.1551C112.541+56.527+112.192+55.7245+112.192+54.7475C112.192+53.7705+112.541+52.968+113.239+52.3399C113.936+51.7119+114.704+51.3978+115.541+51.3978C116.379+51.3978+117.147+51.7119+117.844+52.3399C118.542+52.968+118.891+53.7705+118.891+54.7475Z" opacity="1" fill="#ffffff"/>
<path d="M145.27+71.2864L136.058+71.2864L136.058+90.3376C136.058+91.5472+136.174+92.5475+136.407+93.3384C136.64+94.1293+136.977+94.7457+137.419+95.1877C137.861+95.6296+138.384+95.932+138.989+96.0949C139.594+96.2577+140.245+96.3391+140.943+96.3391C141.594+96.3391+142.281+96.2461+143.002+96.06C143.723+95.8739+144.409+95.618+145.06+95.2923L145.27+99.4096C144.432+99.7353+143.56+99.9795+142.653+100.142C141.746+100.305+140.757+100.387+139.687+100.387C138.803+100.387+137.873+100.27+136.896+100.038C135.919+99.8051+135.011+99.3631+134.174+98.7118C133.337+98.0605+132.65+97.1765+132.115+96.06C131.58+94.9434+131.313+93.4779+131.313+91.6635L131.313+71.2864L124.544+71.2864L124.544+67.3087L131.313+67.3087L131.313+58.0972L136.058+58.0972L136.058+67.3087L145.27+67.3087L145.27+71.2864Z" opacity="1" fill="#ffffff"/>
</g>
<path d="M67.9041+77.9566" opacity="1" fill="#ffffff"/>
<path d="M38.4122+78.7571L38.4101+74.0117L55.6164+73.9392L55.6185+78.6846L38.4122+78.7571Z" opacity="1" fill="#ffffff"/>
<path d="M99.1285+78.7571L99.1264+74.0117L116.333+73.9392L116.335+78.6846L99.1285+78.7571Z" opacity="1" fill="#ffffff"/>
</g>
</g>
</svg>
